<?xml version="1.0" encoding="UTF-8"?>
<!DOCTYPE svg PUBLIC "-//W3C//DTD SVG 1.1//EN" "http://www.w3.org/Graphics/SVG/1.1/DTD/svg11.dtd">
<svg xmlns="http://www.w3.org/2000/svg" version="1.1" width="256px" height="256px" style="shape-rendering:geometricPrecision; text-rendering:geometricPrecision; image-rendering:optimizeQuality; fill-rule:evenodd; clip-rule:evenodd" xmlns:xlink="http://www.w3.org/1999/xlink">
<g><path style="opacity:0.994" fill="#2852ad" d="M 107.5,-0.5 C 120.833,-0.5 134.167,-0.5 147.5,-0.5C 206.506,12.5059 242.506,48.5059 255.5,107.5C 255.5,120.833 255.5,134.167 255.5,147.5C 242.5,206.5 206.5,242.5 147.5,255.5C 134.167,255.5 120.833,255.5 107.5,255.5C 48.5059,242.506 12.5059,206.506 -0.5,147.5C -0.5,134.167 -0.5,120.833 -0.5,107.5C 12.5,48.5 48.5,12.5 107.5,-0.5 Z"/></g>
<g><path style="opacity:1" fill="#a0b1da" d="M 117.5,57.5 C 125.656,56.3434 133.99,56.1768 142.5,57C 143.416,57.2784 144.082,57.7784 144.5,58.5C 135.533,57.6175 126.533,57.2841 117.5,57.5 Z"/></g>
<g><path style="opacity:1" fill="#fcfcfe" d="M 117.5,57.5 C 126.533,57.2841 135.533,57.6175 144.5,58.5C 166.533,61.8648 180.866,74.1981 187.5,95.5C 187.963,98.4824 188.296,101.482 188.5,104.5C 179.143,104.832 169.81,104.498 160.5,103.5C 158.083,93.9583 152.416,87.2917 143.5,83.5C 141.898,81.9261 139.898,81.2594 137.5,81.5C 118.702,78.9929 106.369,86.6596 100.5,104.5C 98.46,108.132 97.2933,112.132 97,116.5C 96.1772,124.677 96.3439,132.677 97.5,140.5C 102.18,169.503 118.514,179.67 146.5,171C 154.03,165.774 158.363,158.608 159.5,149.5C 169.19,149.168 178.856,149.502 188.5,150.5C 178.764,187.529 154.764,203.529 116.5,198.5C 114.485,197.076 112.152,196.41 109.5,196.5C 92.82,191.325 80.9866,180.658 74,164.5C 72.3918,159.178 70.8918,153.845 69.5,148.5C 68.1667,135.167 68.1667,121.833 69.5,108.5C 72.7588,89.4804 82.4255,74.647 98.5,64C 104.476,60.7305 110.809,58.5638 117.5,57.5 Z"/></g>
<g><path style="opacity:1" fill="#98aad7" d="M 137.5,81.5 C 139.898,81.2594 141.898,81.9261 143.5,83.5C 141.214,83.405 139.214,82.7384 137.5,81.5 Z"/></g>
<g><path style="opacity:1" fill="#6a85c5" d="M 187.5,95.5 C 189.482,98.3726 189.815,101.373 188.5,104.5C 188.296,101.482 187.963,98.4824 187.5,95.5 Z"/></g>
<g><path style="opacity:1" fill="#8399cf" d="M 100.5,104.5 C 97.9826,116.343 96.9826,128.343 97.5,140.5C 96.3439,132.677 96.1772,124.677 97,116.5C 97.2933,112.132 98.46,108.132 100.5,104.5 Z"/></g>
<g><path style="opacity:1" fill="#b5c3e3" d="M 69.5,108.5 C 68.1667,121.833 68.1667,135.167 69.5,148.5C 67.975,142.07 67.3083,135.404 67.5,128.5C 67.3083,121.596 67.975,114.93 69.5,108.5 Z"/></g>
<g><path style="opacity:1" fill="#9aacd8" d="M 109.5,196.5 C 112.152,196.41 114.485,197.076 116.5,198.5C 113.848,198.59 111.515,197.924 109.5,196.5 Z"/></g>
</svg>
